<svg xmlns="http://www.w3.org/2000/svg" xmlns:xlink="http://www.w3.org/1999/xlink" width="1920" zoomAndPan="magnify" viewBox="0 0 1440 144.749998" height="193" preserveAspectRatio="xMidYMid meet" version="1.0"><defs><g/></defs><g fill="#828286" fill-opacity="1"><g transform="translate(34.691931, 133.580404)"><g><path d="M 112.203125 -118.824219 L 89.796875 -118.824219 C 88.269531 -118.824219 87.25 -117.804688 87.25 -116.277344 L 87.25 -71.886719 L 41.84375 -71.886719 L 41.84375 -116.277344 C 41.84375 -117.804688 40.824219 -118.824219 39.296875 -118.824219 L 16.976562 -118.824219 C 15.445312 -118.824219 14.429688 -117.804688 14.429688 -116.277344 L 14.429688 -2.546875 C 14.429688 -1.019531 15.445312 0 16.976562 0 L 39.296875 0 C 40.824219 0 41.84375 -1.019531 41.84375 -2.546875 L 41.84375 -47.785156 L 87.25 -47.785156 L 87.25 -2.546875 C 87.25 -1.019531 88.269531 0 89.796875 0 L 112.203125 0 C 113.730469 0 114.75 -1.019531 114.75 -2.546875 L 114.75 -116.277344 C 114.75 -117.804688 113.730469 -118.824219 112.203125 -118.824219 Z M 112.203125 -118.824219 "/></g></g></g><g fill="#828286" fill-opacity="1"><g transform="translate(163.868631, 133.580404)"><g><path d="M 116.363281 -2.886719 L 74.773438 -116.785156 C 74.265625 -118.144531 72.820312 -118.824219 71.464844 -118.824219 L 51.09375 -118.824219 C 49.734375 -118.824219 48.71875 -118.144531 48.207031 -116.785156 L 6.621094 -2.886719 C 6.027344 -1.1875 6.789062 0 8.65625 0 L 31.914062 0 C 33.269531 0 34.375 -0.507812 34.796875 -2.035156 L 40.230469 -18.503906 L 82.75 -18.503906 L 88.183594 -2.035156 C 88.691406 -0.507812 89.710938 0 91.070312 0 L 114.324219 0 C 116.191406 0 116.957031 -1.1875 116.363281 -2.886719 Z M 47.953125 -41.671875 L 61.535156 -82.75 L 75.113281 -41.671875 Z M 47.953125 -41.671875 "/></g></g></g><g fill="#828286" fill-opacity="1"><g transform="translate(286.849603, 133.580404)"><g><path d="M 101.847656 -118.824219 L 30.300781 -118.824219 C 28.773438 -118.824219 27.753906 -117.804688 27.753906 -116.277344 L 27.753906 -97.265625 C 27.753906 -95.738281 28.773438 -94.71875 30.300781 -94.71875 L 76.980469 -94.71875 L 76.980469 -48.71875 C 76.980469 -28.6875 68.578125 -23.933594 57.289062 -23.933594 C 45.746094 -23.933594 37.34375 -28.433594 36.582031 -46.171875 C 36.582031 -47.867188 35.5625 -48.71875 34.035156 -48.71875 L 12.308594 -48.71875 C 10.777344 -48.71875 9.761719 -47.867188 9.761719 -46.171875 C 10.695312 -11.710938 30.128906 2.460938 57.289062 2.460938 C 84.703125 2.460938 104.394531 -12.308594 104.394531 -48.71875 L 104.394531 -116.277344 C 104.394531 -117.804688 103.375 -118.824219 101.847656 -118.824219 Z M 101.847656 -118.824219 "/></g></g></g><g fill="#828286" fill-opacity="1"><g transform="translate(403.549965, 133.580404)"><g><path d="M 96.078125 -94.71875 C 97.605469 -94.71875 98.621094 -95.738281 98.621094 -97.265625 L 98.621094 -116.277344 C 98.621094 -117.804688 97.605469 -118.824219 96.078125 -118.824219 L 14.851562 -118.824219 C 13.324219 -118.824219 12.308594 -117.804688 12.308594 -116.277344 L 12.308594 -97.265625 C 12.308594 -95.738281 13.324219 -94.71875 14.851562 -94.71875 L 41.757812 -94.71875 L 41.757812 -24.105469 L 14.851562 -24.105469 C 13.324219 -24.105469 12.308594 -23.085938 12.308594 -21.558594 L 12.308594 -2.546875 C 12.308594 -1.019531 13.324219 0 14.851562 0 L 96.078125 0 C 97.605469 0 98.621094 -1.019531 98.621094 -2.546875 L 98.621094 -21.558594 C 98.621094 -23.085938 97.605469 -24.105469 96.078125 -24.105469 L 69.171875 -24.105469 L 69.171875 -94.71875 Z M 96.078125 -94.71875 "/></g></g></g><g fill="#828286" fill-opacity="1"><g transform="translate(514.478947, 133.580404)"><g><path d="M 137.835938 -118.824219 L 112.882812 -118.824219 C 111.523438 -118.824219 110.335938 -118.3125 109.828125 -117.125 L 77.488281 -31.742188 L 45.066406 -117.125 C 44.558594 -118.3125 43.371094 -118.824219 42.011719 -118.824219 L 16.976562 -118.824219 C 15.445312 -118.824219 14.429688 -117.804688 14.429688 -116.277344 L 14.429688 -2.546875 C 14.429688 -1.019531 15.445312 0 16.976562 0 L 39.296875 0 C 40.824219 0 41.84375 -1.019531 41.84375 -2.546875 L 41.84375 -59.15625 L 64.335938 -2.121094 C 64.84375 -0.765625 66.117188 0 67.472656 0 L 87.503906 0 C 88.863281 0 90.050781 -0.765625 90.558594 -2.121094 L 112.964844 -58.902344 L 112.964844 -2.546875 C 112.964844 -1.019531 113.984375 0 115.511719 0 L 137.835938 0 C 139.363281 0 140.378906 -1.019531 140.378906 -2.546875 L 140.378906 -116.277344 C 140.378906 -117.804688 139.363281 -118.824219 137.835938 -118.824219 Z M 137.835938 -118.824219 "/></g></g></g><g fill="#828286" fill-opacity="1"><g transform="translate(669.287296, 133.580404)"><g><path d="M 109.742188 -118.824219 L 87.335938 -118.824219 C 85.808594 -118.824219 84.789062 -117.804688 84.789062 -116.277344 L 84.789062 -48.125 C 84.789062 -33.269531 76.386719 -23.933594 61.871094 -23.933594 C 47.527344 -23.933594 38.871094 -33.269531 38.871094 -48.125 L 38.871094 -116.277344 C 38.871094 -117.804688 37.855469 -118.824219 36.324219 -118.824219 L 14.003906 -118.824219 C 12.476562 -118.824219 11.457031 -117.804688 11.457031 -116.277344 L 11.457031 -48.125 C 11.457031 -13.410156 32.675781 2.460938 61.871094 2.460938 C 91.238281 2.460938 112.289062 -13.410156 112.289062 -48.125 L 112.289062 -116.277344 C 112.289062 -117.804688 111.269531 -118.824219 109.742188 -118.824219 Z M 109.742188 -118.824219 "/></g></g></g><g fill="#828286" fill-opacity="1"><g transform="translate(793.032124, 133.580404)"><g><path d="M 99.472656 -118.824219 L 10.609375 -118.824219 C 9.082031 -118.824219 8.0625 -117.804688 8.0625 -116.277344 L 8.0625 -97.265625 C 8.0625 -95.738281 9.082031 -94.71875 10.609375 -94.71875 L 41.332031 -94.71875 L 41.332031 -2.546875 C 41.332031 -1.019531 42.351562 0 43.878906 0 L 66.203125 0 C 67.730469 0 68.746094 -1.019531 68.746094 -2.546875 L 68.746094 -94.71875 L 99.472656 -94.71875 C 101 -94.71875 102.019531 -95.738281 102.019531 -97.265625 L 102.019531 -116.277344 C 102.019531 -117.804688 101 -118.824219 99.472656 -118.824219 Z M 99.472656 -118.824219 "/></g></g></g><g fill="#828286" fill-opacity="1"><g transform="translate(903.112367, 133.580404)"><g><path d="M 72.226562 2.207031 C 105.921875 2.207031 133.589844 -24.953125 133.589844 -58.902344 C 133.589844 -93.019531 105.921875 -120.179688 72.226562 -120.179688 C 38.617188 -120.179688 11.035156 -93.019531 11.035156 -58.902344 C 11.035156 -24.953125 38.617188 2.207031 72.226562 2.207031 Z M 72.226562 -24.359375 C 53.46875 -24.359375 38.617188 -39.550781 38.617188 -58.902344 C 38.617188 -78.421875 53.46875 -93.617188 72.226562 -93.617188 C 91.152344 -93.617188 106.007812 -78.421875 106.007812 -58.902344 C 106.007812 -39.550781 91.152344 -24.359375 72.226562 -24.359375 Z M 72.226562 -24.359375 "/></g></g></g><g fill="#828286" fill-opacity="1"><g transform="translate(1047.735989, 133.580404)"><g><path d="M 110.503906 -118.824219 L 88.097656 -118.824219 C 86.570312 -118.824219 85.550781 -117.804688 85.550781 -116.277344 L 85.550781 -44.472656 L 45.066406 -117.125 C 44.390625 -118.3125 43.371094 -118.824219 42.011719 -118.824219 L 16.976562 -118.824219 C 15.445312 -118.824219 14.429688 -117.804688 14.429688 -116.277344 L 14.429688 -2.546875 C 14.429688 -1.019531 15.445312 0 16.976562 0 L 39.296875 0 C 40.824219 0 41.84375 -1.019531 41.84375 -2.546875 L 41.84375 -74.433594 L 82.328125 -1.699219 C 83.007812 -0.507812 84.023438 0 85.382812 0 L 110.503906 0 C 112.03125 0 113.050781 -1.019531 113.050781 -2.546875 L 113.050781 -116.277344 C 113.050781 -117.804688 112.03125 -118.824219 110.503906 -118.824219 Z M 110.503906 -118.824219 "/></g></g></g><g fill="#828286" fill-opacity="1"><g transform="translate(1175.215212, 133.580404)"><g><path d="M 116.957031 -118.824219 L 91.832031 -118.824219 C 90.476562 -118.824219 89.542969 -118.3125 88.777344 -117.125 L 62.382812 -73.332031 L 36.070312 -117.125 C 35.308594 -118.3125 34.375 -118.824219 33.015625 -118.824219 L 7.808594 -118.824219 C 5.769531 -118.824219 4.921875 -117.71875 6.109375 -115.765625 L 48.71875 -46.339844 L 48.71875 -2.546875 C 48.71875 -1.019531 49.734375 0 51.261719 0 L 73.585938 0 C 75.113281 0 76.132812 -1.019531 76.132812 -2.546875 L 76.132812 -46 L 118.652344 -115.765625 C 119.757812 -117.71875 118.992188 -118.824219 116.957031 -118.824219 Z M 116.957031 -118.824219 "/></g></g></g><g fill="#828286" fill-opacity="1"><g transform="translate(1299.893639, 133.580404)"><g><path d="M 91.410156 -24.105469 L 41.84375 -24.105469 L 41.84375 -47.785156 L 87.082031 -47.785156 C 88.609375 -47.785156 89.625 -48.800781 89.625 -50.328125 L 89.625 -69.339844 C 89.625 -70.871094 88.609375 -71.886719 87.082031 -71.886719 L 41.84375 -71.886719 L 41.84375 -94.71875 L 91.238281 -94.71875 C 92.765625 -94.71875 93.785156 -95.738281 93.785156 -97.265625 L 93.785156 -116.277344 C 93.785156 -117.804688 92.765625 -118.824219 91.238281 -118.824219 L 16.976562 -118.824219 C 15.445312 -118.824219 14.429688 -117.804688 14.429688 -116.277344 L 14.429688 -2.546875 C 14.429688 -1.019531 15.445312 0 16.976562 0 L 91.410156 0 C 92.9375 0 93.953125 -1.019531 93.953125 -2.546875 L 93.953125 -21.558594 C 93.953125 -23.085938 92.9375 -24.105469 91.410156 -24.105469 Z M 91.410156 -24.105469 "/></g></g></g></svg>