<svg xmlns="http://www.w3.org/2000/svg" xmlns:xlink="http://www.w3.org/1999/xlink" width="1920" zoomAndPan="magnify" viewBox="0 0 1440 144.749998" height="193" preserveAspectRatio="xMidYMid meet" version="1.0"><defs><g/></defs><g fill="#000000" fill-opacity="1"><g transform="translate(76.224412, 118.549872)"><g><path d="M 92.402344 -97.855469 L 73.949219 -97.855469 C 72.691406 -97.855469 71.851562 -97.015625 71.851562 -95.757812 L 71.851562 -59.203125 L 34.457031 -59.203125 L 34.457031 -95.757812 C 34.457031 -97.015625 33.621094 -97.855469 32.363281 -97.855469 L 13.980469 -97.855469 C 12.722656 -97.855469 11.882812 -97.015625 11.882812 -95.757812 L 11.882812 -2.097656 C 11.882812 -0.839844 12.722656 0 13.980469 0 L 32.363281 0 C 33.621094 0 34.457031 -0.839844 34.457031 -2.097656 L 34.457031 -39.351562 L 71.851562 -39.351562 L 71.851562 -2.097656 C 71.851562 -0.839844 72.691406 0 73.949219 0 L 92.402344 0 C 93.660156 0 94.5 -0.839844 94.5 -2.097656 L 94.5 -95.757812 C 94.5 -97.015625 93.660156 -97.855469 92.402344 -97.855469 Z M 92.402344 -97.855469 "/></g></g></g><g fill="#000000" fill-opacity="1"><g transform="translate(196.161706, 118.549872)"><g><path d="M 95.828125 -2.375 L 61.578125 -96.175781 C 61.160156 -97.292969 59.96875 -97.855469 58.851562 -97.855469 L 42.078125 -97.855469 C 40.957031 -97.855469 40.121094 -97.292969 39.699219 -96.175781 L 5.453125 -2.375 C 4.960938 -0.980469 5.589844 0 7.128906 0 L 26.28125 0 C 27.398438 0 28.308594 -0.417969 28.65625 -1.675781 L 33.128906 -15.238281 L 68.148438 -15.238281 L 72.621094 -1.675781 C 73.039062 -0.417969 73.878906 0 74.996094 0 L 94.148438 0 C 95.6875 0 96.316406 -0.980469 95.828125 -2.375 Z M 39.492188 -34.320312 L 50.675781 -68.148438 L 61.859375 -34.320312 Z M 39.492188 -34.320312 "/></g></g></g><g fill="#000000" fill-opacity="1"><g transform="translate(310.996814, 118.549872)"><g><path d="M 83.875 -97.855469 L 24.953125 -97.855469 C 23.695312 -97.855469 22.855469 -97.015625 22.855469 -95.757812 L 22.855469 -80.101562 C 22.855469 -78.84375 23.695312 -78.003906 24.953125 -78.003906 L 63.394531 -78.003906 L 63.394531 -40.121094 C 63.394531 -23.625 56.476562 -19.710938 47.179688 -19.710938 C 37.671875 -19.710938 30.753906 -23.414062 30.125 -38.023438 C 30.125 -39.421875 29.285156 -40.121094 28.027344 -40.121094 L 10.136719 -40.121094 C 8.875 -40.121094 8.039062 -39.421875 8.039062 -38.023438 C 8.808594 -9.644531 24.8125 2.027344 47.179688 2.027344 C 69.753906 2.027344 85.972656 -10.136719 85.972656 -40.121094 L 85.972656 -95.757812 C 85.972656 -97.015625 85.132812 -97.855469 83.875 -97.855469 Z M 83.875 -97.855469 "/></g></g></g><g fill="#000000" fill-opacity="1"><g transform="translate(420.659839, 118.549872)"><g><path d="M 79.121094 -78.003906 C 80.378906 -78.003906 81.21875 -78.84375 81.21875 -80.101562 L 81.21875 -95.757812 C 81.21875 -97.015625 80.378906 -97.855469 79.121094 -97.855469 L 12.230469 -97.855469 C 10.972656 -97.855469 10.136719 -97.015625 10.136719 -95.757812 L 10.136719 -80.101562 C 10.136719 -78.84375 10.972656 -78.003906 12.230469 -78.003906 L 34.386719 -78.003906 L 34.386719 -19.851562 L 12.230469 -19.851562 C 10.972656 -19.851562 10.136719 -19.011719 10.136719 -17.753906 L 10.136719 -2.097656 C 10.136719 -0.839844 10.972656 0 12.230469 0 L 79.121094 0 C 80.378906 0 81.21875 -0.839844 81.21875 -2.097656 L 81.21875 -17.753906 C 81.21875 -19.011719 80.378906 -19.851562 79.121094 -19.851562 L 56.964844 -19.851562 L 56.964844 -78.003906 Z M 79.121094 -78.003906 "/></g></g></g><g fill="#000000" fill-opacity="1"><g transform="translate(525.570125, 118.549872)"><g><path d="M 113.511719 -97.855469 L 92.960938 -97.855469 C 91.84375 -97.855469 90.863281 -97.433594 90.445312 -96.457031 L 63.816406 -26.140625 L 37.113281 -96.457031 C 36.695312 -97.433594 35.714844 -97.855469 34.597656 -97.855469 L 13.980469 -97.855469 C 12.722656 -97.855469 11.882812 -97.015625 11.882812 -95.757812 L 11.882812 -2.097656 C 11.882812 -0.839844 12.722656 0 13.980469 0 L 32.363281 0 C 33.621094 0 34.457031 -0.839844 34.457031 -2.097656 L 34.457031 -48.71875 L 52.980469 -1.746094 C 53.398438 -0.628906 54.449219 0 55.566406 0 L 72.0625 0 C 73.179688 0 74.160156 -0.628906 74.578125 -1.746094 L 93.03125 -48.507812 L 93.03125 -2.097656 C 93.03125 -0.839844 93.871094 0 95.128906 0 L 113.511719 0 C 114.769531 0 115.605469 -0.839844 115.605469 -2.097656 L 115.605469 -95.757812 C 115.605469 -97.015625 114.769531 -97.855469 113.511719 -97.855469 Z M 113.511719 -97.855469 "/></g></g></g><g fill="#000000" fill-opacity="1"><g transform="translate(666.615093, 118.549872)"><g><path d="M 90.375 -97.855469 L 71.921875 -97.855469 C 70.664062 -97.855469 69.824219 -97.015625 69.824219 -95.757812 L 69.824219 -39.628906 C 69.824219 -27.398438 62.90625 -19.710938 50.953125 -19.710938 C 39.140625 -19.710938 32.011719 -27.398438 32.011719 -39.628906 L 32.011719 -95.757812 C 32.011719 -97.015625 31.171875 -97.855469 29.914062 -97.855469 L 11.53125 -97.855469 C 10.273438 -97.855469 9.4375 -97.015625 9.4375 -95.757812 L 9.4375 -39.628906 C 9.4375 -11.042969 26.910156 2.027344 50.953125 2.027344 C 75.136719 2.027344 92.472656 -11.042969 92.472656 -39.628906 L 92.472656 -95.757812 C 92.472656 -97.015625 91.632812 -97.855469 90.375 -97.855469 Z M 90.375 -97.855469 "/></g></g></g><g fill="#000000" fill-opacity="1"><g transform="translate(782.079226, 118.549872)"><g><path d="M 81.917969 -97.855469 L 8.738281 -97.855469 C 7.480469 -97.855469 6.640625 -97.015625 6.640625 -95.757812 L 6.640625 -80.101562 C 6.640625 -78.84375 7.480469 -78.003906 8.738281 -78.003906 L 34.039062 -78.003906 L 34.039062 -2.097656 C 34.039062 -0.839844 34.878906 0 36.136719 0 L 54.519531 0 C 55.777344 0 56.617188 -0.839844 56.617188 -2.097656 L 56.617188 -78.003906 L 81.917969 -78.003906 C 83.175781 -78.003906 84.015625 -78.84375 84.015625 -80.101562 L 84.015625 -95.757812 C 84.015625 -97.015625 83.175781 -97.855469 81.917969 -97.855469 Z M 81.917969 -97.855469 "/></g></g></g><g fill="#000000" fill-opacity="1"><g transform="translate(886.290592, 118.549872)"><g><path d="M 59.480469 1.816406 C 87.230469 1.816406 110.015625 -20.550781 110.015625 -48.507812 C 110.015625 -76.605469 87.230469 -98.972656 59.480469 -98.972656 C 31.800781 -98.972656 9.085938 -76.605469 9.085938 -48.507812 C 9.085938 -20.550781 31.800781 1.816406 59.480469 1.816406 Z M 59.480469 -20.058594 C 44.035156 -20.058594 31.800781 -32.570312 31.800781 -48.507812 C 31.800781 -64.582031 44.035156 -77.09375 59.480469 -77.09375 C 75.066406 -77.09375 87.300781 -64.582031 87.300781 -48.507812 C 87.300781 -32.570312 75.066406 -20.058594 59.480469 -20.058594 Z M 59.480469 -20.058594 "/></g></g></g><g fill="#000000" fill-opacity="1"><g transform="translate(1018.948434, 118.549872)"><g><path d="M 91.003906 -97.855469 L 72.550781 -97.855469 C 71.292969 -97.855469 70.453125 -97.015625 70.453125 -95.757812 L 70.453125 -36.625 L 37.113281 -96.457031 C 36.554688 -97.433594 35.714844 -97.855469 34.597656 -97.855469 L 13.980469 -97.855469 C 12.722656 -97.855469 11.882812 -97.015625 11.882812 -95.757812 L 11.882812 -2.097656 C 11.882812 -0.839844 12.722656 0 13.980469 0 L 32.363281 0 C 33.621094 0 34.457031 -0.839844 34.457031 -2.097656 L 34.457031 -61.296875 L 67.796875 -1.398438 C 68.359375 -0.417969 69.195312 0 70.316406 0 L 91.003906 0 C 92.261719 0 93.101562 -0.839844 93.101562 -2.097656 L 93.101562 -95.757812 C 93.101562 -97.015625 92.261719 -97.855469 91.003906 -97.855469 Z M 91.003906 -97.855469 "/></g></g></g><g fill="#000000" fill-opacity="1"><g transform="translate(1137.487867, 118.549872)"><g><path d="M 96.316406 -97.855469 L 75.628906 -97.855469 C 74.507812 -97.855469 73.738281 -97.433594 73.109375 -96.457031 L 51.375 -60.390625 L 29.707031 -96.457031 C 29.078125 -97.433594 28.308594 -97.855469 27.1875 -97.855469 L 6.429688 -97.855469 C 4.753906 -97.855469 4.054688 -96.945312 5.03125 -95.335938 L 40.121094 -38.164062 L 40.121094 -2.097656 C 40.121094 -0.839844 40.957031 0 42.21875 0 L 60.597656 0 C 61.859375 0 62.695312 -0.839844 62.695312 -2.097656 L 62.695312 -37.882812 L 97.714844 -95.335938 C 98.621094 -96.945312 97.992188 -97.855469 96.316406 -97.855469 Z M 96.316406 -97.855469 "/></g></g></g><g fill="#000000" fill-opacity="1"><g transform="translate(1253.720859, 118.549872)"><g><path d="M 75.277344 -19.851562 L 34.457031 -19.851562 L 34.457031 -39.351562 L 71.710938 -39.351562 C 72.972656 -39.351562 73.808594 -40.191406 73.808594 -41.449219 L 73.808594 -57.105469 C 73.808594 -58.363281 72.972656 -59.203125 71.710938 -59.203125 L 34.457031 -59.203125 L 34.457031 -78.003906 L 75.136719 -78.003906 C 76.394531 -78.003906 77.234375 -78.84375 77.234375 -80.101562 L 77.234375 -95.757812 C 77.234375 -97.015625 76.394531 -97.855469 75.136719 -97.855469 L 13.980469 -97.855469 C 12.722656 -97.855469 11.882812 -97.015625 11.882812 -95.757812 L 11.882812 -2.097656 C 11.882812 -0.839844 12.722656 0 13.980469 0 L 75.277344 0 C 76.535156 0 77.375 -0.839844 77.375 -2.097656 L 77.375 -17.753906 C 77.375 -19.011719 76.535156 -19.851562 75.277344 -19.851562 Z M 75.277344 -19.851562 "/></g></g></g></svg>