<svg xmlns="http://www.w3.org/2000/svg" xmlns:xlink="http://www.w3.org/1999/xlink" width="1920" zoomAndPan="magnify" viewBox="0 0 1440 144.749998" height="193" preserveAspectRatio="xMidYMid meet" version="1.0"><defs><g/><clipPath id="c98953e76c"><path d="M 1.242188 0 L 1438.757812 0 L 1438.757812 144.5 L 1.242188 144.5 Z M 1.242188 0 " clip-rule="nonzero"/></clipPath></defs><g clip-path="url(#c98953e76c)"><path fill="#ffffff" d="M 1.242188 0 L 1438.757812 0 L 1438.757812 151.238281 L 1.242188 151.238281 Z M 1.242188 0 " fill-opacity="1" fill-rule="nonzero"/><path fill="#ffffff" d="M 1.242188 0 L 1438.757812 0 L 1438.757812 144.5 L 1.242188 144.5 Z M 1.242188 0 " fill-opacity="1" fill-rule="nonzero"/><path fill="#ffffff" d="M 1.242188 0 L 1438.757812 0 L 1438.757812 144.5 L 1.242188 144.5 Z M 1.242188 0 " fill-opacity="1" fill-rule="nonzero"/></g><g fill="#000000" fill-opacity="1"><g transform="translate(49.39005, 134.63662)"><g><path d="M 108.382812 -118.824219 L 91.238281 -118.824219 C 89.710938 -118.824219 88.691406 -117.804688 88.691406 -116.277344 L 88.691406 -70.019531 L 36.582031 -70.019531 L 36.582031 -116.277344 C 36.582031 -117.804688 35.5625 -118.824219 34.035156 -118.824219 L 16.976562 -118.824219 C 15.445312 -118.824219 14.429688 -117.804688 14.429688 -116.277344 L 14.429688 -2.546875 C 14.429688 -1.019531 15.445312 0 16.976562 0 L 34.035156 0 C 35.5625 0 36.582031 -1.019531 36.582031 -2.546875 L 36.582031 -50.328125 L 88.691406 -50.328125 L 88.691406 -2.546875 C 88.691406 -1.019531 89.710938 0 91.238281 0 L 108.382812 0 C 109.910156 0 110.929688 -1.019531 110.929688 -2.546875 L 110.929688 -116.277344 C 110.929688 -117.804688 109.910156 -118.824219 108.382812 -118.824219 Z M 108.382812 -118.824219 "/></g></g></g><g fill="#000000" fill-opacity="1"><g transform="translate(174.747472, 134.63662)"><g><path d="M 113.304688 -2.886719 L 71.039062 -116.785156 C 70.53125 -118.144531 69.171875 -118.824219 67.8125 -118.824219 L 51.859375 -118.824219 C 50.5 -118.824219 49.394531 -118.144531 48.886719 -116.785156 L 6.621094 -2.886719 C 6.027344 -1.1875 6.789062 0 8.65625 0 L 26.3125 0 C 27.667969 0 28.6875 -0.507812 29.195312 -2.035156 L 35.984375 -21.386719 L 83.941406 -21.386719 L 90.730469 -2.035156 C 91.238281 -0.507812 92.257812 0 93.617188 0 L 111.269531 0 C 113.136719 0 113.898438 -1.1875 113.304688 -2.886719 Z M 42.605469 -40.398438 L 60.003906 -90.136719 L 77.320312 -40.398438 Z M 42.605469 -40.398438 "/></g></g></g><g fill="#000000" fill-opacity="1"><g transform="translate(294.673022, 134.63662)"><g><path d="M 97.605469 -118.824219 L 29.789062 -118.824219 C 28.261719 -118.824219 27.246094 -117.804688 27.246094 -116.277344 L 27.246094 -101.679688 C 27.246094 -100.152344 28.261719 -99.132812 29.789062 -99.132812 L 78 -99.132812 L 78 -46 C 78 -25.378906 68.324219 -18.757812 55.167969 -18.757812 C 41.84375 -18.757812 32.421875 -25.121094 31.488281 -43.457031 C 31.488281 -45.152344 30.46875 -46 28.941406 -46 L 12.308594 -46 C 10.777344 -46 9.761719 -45.152344 9.761719 -43.457031 C 10.777344 -11.203125 29.367188 2.460938 55.167969 2.460938 C 81.222656 2.460938 100.152344 -11.96875 100.152344 -46 L 100.152344 -116.277344 C 100.152344 -117.804688 99.132812 -118.824219 97.605469 -118.824219 Z M 97.605469 -118.824219 "/></g></g></g><g fill="#000000" fill-opacity="1"><g transform="translate(407.12976, 134.63662)"><g><path d="M 95.226562 -99.132812 C 96.753906 -99.132812 97.773438 -100.152344 97.773438 -101.679688 L 97.773438 -116.277344 C 97.773438 -117.804688 96.753906 -118.824219 95.226562 -118.824219 L 14.851562 -118.824219 C 13.324219 -118.824219 12.308594 -117.804688 12.308594 -116.277344 L 12.308594 -101.679688 C 12.308594 -100.152344 13.324219 -99.132812 14.851562 -99.132812 L 43.964844 -99.132812 L 43.964844 -19.691406 L 14.851562 -19.691406 C 13.324219 -19.691406 12.308594 -18.671875 12.308594 -17.144531 L 12.308594 -2.546875 C 12.308594 -1.019531 13.324219 0 14.851562 0 L 95.226562 0 C 96.753906 0 97.773438 -1.019531 97.773438 -2.546875 L 97.773438 -17.144531 C 97.773438 -18.671875 96.753906 -19.691406 95.226562 -19.691406 L 66.117188 -19.691406 L 66.117188 -99.132812 Z M 95.226562 -99.132812 "/></g></g></g><g fill="#000000" fill-opacity="1"><g transform="translate(517.210048, 134.63662)"><g><path d="M 135.375 -118.824219 L 115.511719 -118.824219 C 114.15625 -118.824219 112.964844 -118.3125 112.457031 -117.125 L 76.214844 -25.460938 L 39.804688 -117.125 C 39.296875 -118.3125 38.109375 -118.824219 36.75 -118.824219 L 16.976562 -118.824219 C 15.445312 -118.824219 14.429688 -117.804688 14.429688 -116.277344 L 14.429688 -2.546875 C 14.429688 -1.019531 15.445312 0 16.976562 0 L 34.035156 0 C 35.5625 0 36.582031 -1.019531 36.582031 -2.546875 L 36.582031 -72.738281 L 65.269531 -2.035156 C 65.777344 -0.679688 66.964844 0 68.324219 0 L 84.023438 0 C 85.382812 0 86.484375 -0.679688 86.996094 -2.035156 L 115.765625 -72.820312 L 115.765625 -2.546875 C 115.765625 -1.019531 116.785156 0 118.3125 0 L 135.375 0 C 136.902344 0 137.917969 -1.019531 137.917969 -2.546875 L 137.917969 -116.277344 C 137.917969 -117.804688 136.902344 -118.824219 135.375 -118.824219 Z M 135.375 -118.824219 "/></g></g></g><g fill="#000000" fill-opacity="1"><g transform="translate(669.557083, 134.63662)"><g><path d="M 107.621094 -118.824219 L 90.476562 -118.824219 C 88.949219 -118.824219 87.929688 -117.804688 87.929688 -116.277344 L 87.929688 -48.125 C 87.929688 -29.027344 77.574219 -18.757812 60.769531 -18.757812 C 44.132812 -18.757812 33.609375 -29.027344 33.609375 -48.125 L 33.609375 -116.277344 C 33.609375 -117.804688 32.589844 -118.824219 31.0625 -118.824219 L 14.003906 -118.824219 C 12.476562 -118.824219 11.457031 -117.804688 11.457031 -116.277344 L 11.457031 -48.125 C 11.457031 -13.75 31.316406 2.460938 60.769531 2.460938 C 90.390625 2.460938 110.164062 -13.75 110.164062 -48.125 L 110.164062 -116.277344 C 110.164062 -117.804688 109.148438 -118.824219 107.621094 -118.824219 Z M 107.621094 -118.824219 "/></g></g></g><g fill="#000000" fill-opacity="1"><g transform="translate(791.180088, 134.63662)"><g><path d="M 98.621094 -118.824219 L 10.609375 -118.824219 C 9.082031 -118.824219 8.0625 -117.804688 8.0625 -116.277344 L 8.0625 -101.679688 C 8.0625 -100.152344 9.082031 -99.132812 10.609375 -99.132812 L 43.539062 -99.132812 L 43.539062 -2.546875 C 43.539062 -1.019531 44.558594 0 46.085938 0 L 63.144531 0 C 64.671875 0 65.691406 -1.019531 65.691406 -2.546875 L 65.691406 -99.132812 L 98.621094 -99.132812 C 100.152344 -99.132812 101.167969 -100.152344 101.167969 -101.679688 L 101.167969 -116.277344 C 101.167969 -117.804688 100.152344 -118.824219 98.621094 -118.824219 Z M 98.621094 -118.824219 "/></g></g></g><g fill="#000000" fill-opacity="1"><g transform="translate(900.411638, 134.63662)"><g><path d="M 72.058594 2.207031 C 105.667969 2.207031 133.167969 -24.953125 133.167969 -58.902344 C 133.167969 -93.019531 105.667969 -120.179688 72.058594 -120.179688 C 38.449219 -120.179688 11.035156 -93.019531 11.035156 -58.902344 C 11.035156 -24.953125 38.449219 2.207031 72.058594 2.207031 Z M 72.058594 -19.097656 C 50.328125 -19.097656 33.183594 -36.664062 33.183594 -58.902344 C 33.183594 -81.308594 50.328125 -98.878906 72.058594 -98.878906 C 93.871094 -98.878906 111.015625 -81.308594 111.015625 -58.902344 C 111.015625 -36.664062 93.871094 -19.097656 72.058594 -19.097656 Z M 72.058594 -19.097656 "/></g></g></g><g fill="#000000" fill-opacity="1"><g transform="translate(1044.610826, 134.63662)"><g><path d="M 106.429688 -118.824219 L 89.285156 -118.824219 C 87.757812 -118.824219 86.742188 -117.804688 86.742188 -116.277344 L 86.742188 -34.714844 L 39.804688 -117.125 C 39.125 -118.3125 38.109375 -118.824219 36.75 -118.824219 L 16.890625 -118.824219 C 15.445312 -118.824219 14.429688 -117.804688 14.429688 -116.277344 L 14.429688 -2.546875 C 14.429688 -1.019531 15.445312 0 16.976562 0 L 34.035156 0 C 35.5625 0 36.582031 -1.019531 36.582031 -2.546875 L 36.582031 -84.195312 L 83.515625 -1.699219 C 84.195312 -0.507812 85.214844 0 86.570312 0 L 106.515625 0 C 107.957031 0 108.976562 -1.019531 108.976562 -2.546875 L 108.976562 -116.277344 C 108.976562 -117.804688 107.957031 -118.824219 106.429688 -118.824219 Z M 106.429688 -118.824219 "/></g></g></g><g fill="#000000" fill-opacity="1"><g transform="translate(1168.016214, 134.63662)"><g><path d="M 113.5625 -118.824219 L 94.125 -118.824219 C 92.765625 -118.824219 91.832031 -118.3125 91.070312 -117.125 L 60.683594 -68.152344 L 30.214844 -117.125 C 29.449219 -118.3125 28.515625 -118.824219 27.160156 -118.824219 L 7.808594 -118.824219 C 5.769531 -118.824219 4.921875 -117.632812 6.109375 -115.765625 L 49.566406 -46.171875 L 49.566406 -2.546875 C 49.566406 -1.019531 50.585938 0 52.113281 0 L 69.257812 0 C 70.785156 0 71.804688 -1.019531 71.804688 -2.546875 L 71.804688 -46.085938 L 115.257812 -115.765625 C 116.363281 -117.632812 115.597656 -118.824219 113.5625 -118.824219 Z M 113.5625 -118.824219 "/></g></g></g><g fill="#000000" fill-opacity="1"><g transform="translate(1289.299778, 134.63662)"><g><path d="M 90.558594 -19.691406 L 36.582031 -19.691406 L 36.582031 -50.925781 L 86.0625 -50.925781 C 87.589844 -50.925781 88.609375 -51.941406 88.609375 -53.46875 L 88.609375 -68.152344 C 88.609375 -69.679688 87.589844 -70.699219 86.0625 -70.699219 L 36.582031 -70.699219 L 36.582031 -99.132812 L 90.390625 -99.132812 C 91.917969 -99.132812 92.9375 -100.152344 92.9375 -101.679688 L 92.9375 -116.277344 C 92.9375 -117.804688 91.917969 -118.824219 90.390625 -118.824219 L 16.976562 -118.824219 C 15.445312 -118.824219 14.429688 -117.804688 14.429688 -116.277344 L 14.429688 -2.546875 C 14.429688 -1.019531 15.445312 0 16.976562 0 L 90.558594 0 C 92.085938 0 93.105469 -1.019531 93.105469 -2.546875 L 93.105469 -17.144531 C 93.105469 -18.671875 92.085938 -19.691406 90.558594 -19.691406 Z M 90.558594 -19.691406 "/></g></g></g></svg>